<?xml version="1.0" encoding="UTF-8"?>
<svg id="Layer_2" data-name="Layer 2" xmlns="http://www.w3.org/2000/svg" xmlns:xlink="http://www.w3.org/1999/xlink" viewBox="0 0 247.74 39.12">
  <defs>
    <style>
      .cls-1 {
        fill: url(#linear-gradient);
        stroke-width: 0px;
      }
    </style>
    <linearGradient id="linear-gradient" x1="123.87" y1="39.12" x2="123.87" y2="0" gradientUnits="userSpaceOnUse">
      <stop offset="0" stop-color="#fff"/>
      <stop offset="1" stop-color="#9d8ec4"/>
    </linearGradient>
  </defs>
  <g id="CARD">
    <path class="cls-1" d="M11.35,12.05c0,.56.23,1.06.69,1.53.58.58,1.34,1.1,2.28,1.56,1.01.5,2.07.95,3.15,1.35,1.07.4,2.13.88,3.17,1.42,1.09.57,2.08,1.29,2.95,2.14.89.88,1.62,1.97,2.15,3.26.53,1.28.8,2.86.8,4.68,0,1.97-.52,3.82-1.54,5.51-1.02,1.69-2.53,3.07-4.47,4.09-1.93,1.02-4.32,1.53-7.09,1.53-1.4,0-2.85-.14-4.3-.43-1.45-.28-2.9-.72-4.3-1.31-1.4-.58-2.77-1.34-4.07-2.24l-.75-.52,4.08-7.2.91.66c.78.57,1.64,1.08,2.55,1.51.92.44,1.85.78,2.77,1.02,1.79.46,3.21.46,4.74.03.68-.19,1.23-.51,1.67-.96.38-.39.56-.94.56-1.7,0-.47-.16-.9-.48-1.29-.39-.48-.93-.94-1.62-1.36-.72-.44-1.53-.83-2.4-1.17-1.1-.42-2.26-.92-3.43-1.47-1.21-.57-2.37-1.28-3.43-2.11-1.12-.87-2.03-1.96-2.72-3.25-.7-1.31-1.05-2.91-1.05-4.77,0-2.22.51-4.19,1.51-5.85,1-1.65,2.44-2.98,4.25-3.94,1.79-.95,3.87-1.48,6.19-1.58h.01c3,0,5.45.36,7.33,1.07,1.83.69,3.51,1.54,4.97,2.5l.74.49-3.5,7.06-.91-.5c-1.29-.71-2.62-1.3-3.95-1.76-2.78-.96-5.29-.83-6.57.06h0c-.59.42-.87,1.03-.87,1.92ZM54.77,1.39h-25.82v8.72h8.26v28.62h8.96V10.12h8.6V1.39ZM70.61,0l16.81,38.74h-10.27l-2.73-6.92h-10.38l-2.88,6.92h-9.06L68.91,0h1.7ZM74.26,25.97l-4.84-12.28-5.11,12.28h9.95ZM111.37,25.21l8.67,13.54h-10.48l-7.47-11.24h-3.1v11.24h-8.96V1.39h11.71c2.3,0,4.39.3,6.21.89,1.85.6,3.43,1.48,4.7,2.61,1.28,1.14,2.26,2.52,2.92,4.11.66,1.57.99,3.36.99,5.31,0,1.53-.23,3.08-.69,4.61-.47,1.56-1.24,3.01-2.3,4.29h0c-.62.75-1.36,1.42-2.21,2ZM107.22,13.27c-.09-.48-.29-.98-.58-1.49-.26-.45-.68-.85-1.24-1.17-.56-.32-1.37-.49-2.41-.49h-4v8.66h3.95c.9,0,1.63-.14,2.19-.42.56-.28.99-.63,1.3-1.04.33-.45.57-.92.71-1.4.15-.5.22-.96.22-1.37,0-.32-.05-.75-.15-1.28ZM153.94,13.8c.73,2.27,1.11,4.59,1.11,6.89,0,2.75-.51,5.27-1.5,7.49-1,2.21-2.38,4.13-4.1,5.71-1.72,1.57-3.74,2.78-6,3.61-2.24.82-4.65,1.24-7.16,1.24h-13.3V1.39h11.57c3.67,0,6.86.56,9.47,1.66,2.63,1.11,4.78,2.62,6.39,4.49,1.6,1.85,2.79,3.96,3.53,6.25ZM144.83,15.03c-.68-1.31-1.51-2.33-2.48-3.03-1-.72-2.03-1.23-3.05-1.5-1.06-.28-1.96-.42-2.67-.42h-4.67v19.95h3.13c1.65,0,3.16-.22,4.5-.65,1.31-.42,2.44-1.04,3.38-1.85.92-.79,1.63-1.8,2.13-3.01.51-1.23.76-2.68.76-4.3,0-2.13-.34-3.88-1.02-5.19ZM181.05,24.68c0,.93-.27,1.81-.83,2.68-.57.88-1.35,1.61-2.32,2.17-.97.56-2.07.83-3.35.83-1.15,0-2.17-.27-3.12-.83-.96-.56-1.75-1.29-2.33-2.18-.57-.87-.84-1.74-.84-2.67V1.39h-8.96v23.43c0,2.78.7,5.28,2.08,7.43,1.37,2.14,3.23,3.84,5.54,5.05,2.29,1.21,4.87,1.82,7.65,1.82s5.41-.61,7.72-1.82c2.32-1.21,4.2-2.91,5.57-5.05,1.38-2.16,2.08-4.66,2.08-7.43V1.39h-8.87v23.29ZM205.2,10.13h0c1.28-.9,3.79-1.03,6.57-.07,1.33.46,2.66,1.05,3.95,1.76l.91.5,3.5-7.06-.74-.49c-1.46-.97-3.14-1.81-4.97-2.5-1.88-.71-4.33-1.07-7.33-1.07h-.01c-2.31.1-4.4.63-6.19,1.58-1.82.96-3.25,2.29-4.25,3.94-1,1.66-1.51,3.63-1.51,5.85,0,1.86.35,3.46,1.05,4.77.69,1.29,1.6,2.38,2.72,3.25,1.06.83,2.22,1.54,3.43,2.11,1.18.56,2.33,1.05,3.43,1.47.87.33,1.68.72,2.4,1.17.68.42,1.23.88,1.62,1.36.32.4.48.82.48,1.29,0,.76-.18,1.32-.56,1.7-.44.45-.99.77-1.67.96-1.52.43-2.95.43-4.74-.03-.93-.24-1.86-.58-2.77-1.02-.91-.43-1.77-.94-2.55-1.51l-.91-.66-4.08,7.2.75.52c1.3.9,2.67,1.65,4.07,2.24,1.4.58,2.85,1.02,4.3,1.31,1.45.28,2.89.43,4.3.43,2.78,0,5.17-.52,7.09-1.53,1.95-1.03,3.45-2.4,4.47-4.09,1.02-1.69,1.54-3.54,1.54-5.51,0-1.82-.27-3.39-.8-4.68-.53-1.29-1.25-2.39-2.15-3.26-.87-.85-1.86-1.57-2.95-2.14-1.03-.54-2.1-1.02-3.17-1.42-1.08-.4-2.14-.85-3.15-1.35-.94-.46-1.7-.99-2.28-1.56-.46-.47-.69-.96-.69-1.53,0-.89.28-1.5.87-1.92ZM221.92,1.39v8.72h8.26v28.62h8.96V10.12h8.6V1.39h-25.82Z"/>
  </g>
</svg>